<svg version="1.1" xmlns="http://www.w3.org/2000/svg" width="88" height="24" viewBox="0 0 88 32">
<title>CSIS-logo</title>
<path d="M22.392 1.459c1.228 0.137 2.731 0.82 3.413 0.82 0.272 0 0.683 0.273 0.683 1.365 0 0.956 0.272 2.867 0.272 3.96 0 0.955-0.272 1.501-0.683 1.501-0.272 0-0.547-0.547-0.683-1.229-0.409-1.639-1.228-2.867-1.911-3.413-2.457-1.911-4.779-2.32-7.236-2.32-7.237 0-11.88 6.007-11.88 12.833 0 3.004 0.547 5.461 1.64 7.373 2.457 5.187 7.781 7.236 11.468 7.236 0.82 0 3.004-0.137 4.916-1.229 2.048-1.092 3.14-2.457 4.232-4.369 0.547-0.955 0.819-1.228 0.956-1.228 0.409 0 0.547 0.956 0.409 1.501-0.136 1.093-1.229 3.551-1.775 4.507-0.137 0.409-0.956 0.955-1.365 1.228-0.683 0.273-4.369 1.229-8.192 1.229-6.417 0-11.060-3.141-12.835-5.325-1.775-2.048-3.823-5.188-3.823-10.376 0-5.189 3.004-9.285 4.915-10.787 3.824-3.14 8.056-4.096 12.152-4.096 1.501 0.136 3.549 0.409 5.325 0.819zM47.104 1.596c0.273 0.136 0.547 0.819 0.547 0.819 0.136 0.82 0.409 3.413 0.409 3.687 0 0.819 0 1.229-0.273 1.229-0.409 0-0.956-0.273-1.093-0.956-0.545-1.639-1.773-3.004-2.184-3.277-0.819-0.683-1.911-1.092-3.14-1.092-3.004 0-5.187 2.32-5.187 5.325 0 3.14 2.32 4.641 6.28 7.236 3.413 2.32 6.28 4.641 6.28 8.737 0 2.321-1.229 4.779-3.687 6.417-1.501 0.956-4.096 1.639-6.144 1.639-1.501 0-4.507-0.547-5.871-1.229-0.409-0.272-1.093-1.228-1.093-1.501-0.272-1.501-0.681-3.549-0.681-4.232 0-0.137 0.409-0.82 0.683-0.82 0.409 0 1.092 1.229 1.639 2.595 1.228 2.457 4.096 3.549 5.871 3.549 3.14 0 5.461-2.184 5.461-5.461 0-1.911-0.956-3.96-5.599-6.963-3.823-2.457-6.553-5.052-6.553-8.875 0-2.185 0.956-4.096 2.457-5.461 1.365-1.229 3.551-2.185 6.691-2.185 2.048 0 4.507 0.683 5.188 0.82zM56.799 5.965c-0.137-2.048-0.137-2.731-2.595-3.141-0.956-0.136-1.229-0.547-1.229-0.819 0-0.409 0.547-0.547 1.093-0.547 1.228 0 3.413 0.137 4.915 0.137 2.184 0 3.276-0.137 4.779-0.137 0.683 0 1.093 0.137 1.093 0.547s-0.411 0.683-1.229 0.819c-2.595 0.547-2.595 1.64-2.732 2.867-0.136 1.367-0.136 4.371-0.136 13.245 0 2.457 0 5.324 0.136 6.689 0.137 2.457 0.411 3.277 3.277 3.823 0.819 0.137 1.229 0.411 1.229 0.82s-0.683 0.547-1.229 0.547c-2.32 0-5.461-0.273-6.689-0.273-1.365 0-1.776 0.136-3.413 0.136-0.82 0-1.229-0.273-1.229-0.683 0-0.273 0.409-0.547 1.365-0.819 2.32-0.547 2.457-1.229 2.595-3.277 0.136-1.639 0.272-6.28 0.272-10.104-0.136-2.731-0.136-8.328-0.272-9.829zM84.515 1.596c0.272 0.136 0.547 0.819 0.547 0.819 0.136 0.82 0.409 3.413 0.409 3.687 0 0.819 0 1.229-0.273 1.229-0.411 0-0.956-0.273-1.093-0.956-0.547-1.639-1.773-3.004-2.184-3.277-0.819-0.683-1.911-1.092-3.14-1.092-3.004 0-5.188 2.32-5.188 5.325 0 3.14 2.32 4.641 6.28 7.236 3.413 2.32 6.28 4.641 6.28 8.737 0 2.321-1.228 4.779-3.685 6.417-1.503 0.956-4.096 1.639-6.144 1.639-1.503 0-4.507-0.547-5.871-1.229-0.411-0.272-1.093-1.228-1.093-1.501-0.272-1.501-0.683-3.549-0.683-4.232 0-0.137 0.411-0.82 0.683-0.82 0.411 0 1.093 1.229 1.64 2.595 1.227 2.457 4.095 3.549 5.869 3.549 3.14 0 5.461-2.184 5.461-5.461 0-1.911-0.955-3.96-5.597-6.963-3.823-2.457-6.553-5.052-6.553-8.875 0-2.185 0.955-4.096 2.457-5.461 1.364-1.229 3.549-2.185 6.691-2.185 2.048 0 4.505 0.683 5.187 0.82z"></path>
</svg>
