<svg width="173" height="24" fill="none" xmlns="http://www.w3.org/2000/svg"><g clip-path="url(#a)" fill="#0054A4"><path d="M13.12 3.36c.72.08 1.6.48 2 .48.16 0 .4.16.4.8 0 .56.16 1.68.16 2.32 0 .56-.16.88-.4.88-.16 0-.32-.32-.4-.72-.24-.96-.72-1.68-1.12-2-1.44-1.12-2.8-1.36-4.24-1.36-4.24 0-6.96 3.52-6.96 7.52 0 1.76.32 3.2.96 4.32 1.44 3.04 4.56 4.24 6.72 4.24.48 0 1.76-.08 2.88-.72 1.2-.64 1.84-1.44 2.48-2.56.32-.56.48-.72.56-.72.24 0 .32.56.24.88-.08.64-.72 2.08-1.04 2.64-.08.24-.56.56-.8.72-.4.16-2.56.72-4.8.72-3.76 0-6.48-1.84-7.52-3.12C1.2 16.48 0 14.64 0 11.6s1.76-5.44 2.88-6.32C5.12 3.44 7.6 2.88 10 2.88c.88.08 2.08.24 3.12.48zM27.6 3.44c.16.08.32.48.32.48.08.48.24 2 .24 2.16 0 .48 0 .72-.16.72-.24 0-.56-.16-.64-.56-.32-.96-1.04-1.76-1.28-1.92-.48-.4-1.12-.64-1.84-.64-1.76 0-3.04 1.36-3.04 3.12 0 1.84 1.36 2.72 3.68 4.24 2 1.36 3.68 2.72 3.68 5.12 0 1.36-.72 2.8-2.16 3.76-.88.56-2.4.96-3.6.96-.88 0-2.64-.32-3.44-.72-.24-.16-.64-.72-.64-.88-.16-.88-.4-2.08-.4-2.48 0-.08.24-.48.4-.48.24 0 .64.72.96 1.52.72 1.44 2.4 2.08 3.44 2.08 1.84 0 3.2-1.28 3.2-3.2 0-1.12-.56-2.32-3.28-4.08-2.24-1.44-3.84-2.96-3.84-5.2 0-1.28.56-2.4 1.44-3.2.8-.72 2.08-1.28 3.92-1.28 1.2 0 2.64.4 3.04.48zM33.28 6c-.08-1.2-.08-1.6-1.52-1.84-.56-.08-.72-.32-.72-.48 0-.24.32-.32.64-.32.72 0 2 .08 2.88.08 1.28 0 1.92-.08 2.8-.08.4 0 .64.08.64.32s-.24.4-.72.48c-1.52.32-1.52.96-1.6 1.68-.08.8-.08 2.56-.08 7.76 0 1.44 0 3.12.08 3.92.08 1.44.24 1.92 1.92 2.24.48.08.72.24.72.48s-.4.32-.72.32c-1.36 0-3.2-.16-3.92-.16-.8 0-1.04.08-2 .08-.48 0-.72-.16-.72-.4 0-.16.24-.32.8-.48 1.36-.32 1.44-.72 1.52-1.92.08-.96.16-3.68.16-5.92-.08-1.6-.08-4.88-.16-5.76zM49.52 3.44c.16.08.32.48.32.48.08.48.24 2 .24 2.16 0 .48 0 .72-.16.72-.24 0-.56-.16-.64-.56-.32-.96-1.04-1.76-1.28-1.92-.48-.4-1.12-.64-1.84-.64-1.76 0-3.04 1.36-3.04 3.12 0 1.84 1.36 2.72 3.68 4.24 2 1.36 3.68 2.72 3.68 5.12 0 1.36-.72 2.8-2.16 3.76-.88.56-2.4.96-3.6.96-.88 0-2.64-.32-3.44-.72-.24-.16-.64-.72-.64-.88-.16-.88-.4-2.08-.4-2.48 0-.08.24-.48.4-.48.24 0 .64.72.96 1.52.72 1.44 2.4 2.08 3.44 2.08 1.84 0 3.2-1.28 3.2-3.2 0-1.12-.56-2.32-3.28-4.08-2.24-1.44-3.84-2.96-3.84-5.2 0-1.28.56-2.4 1.44-3.2.8-.72 2.08-1.28 3.92-1.28 1.2 0 2.64.4 3.04.48zM60 23.6V.4c0-.24.16-.4.4-.4.24 0 .4.16.4.4v23.2c0 .24-.16.4-.4.4-.16 0-.4-.16-.4-.4zM72.88 10.32c-1.28 0-2.32-.72-2.32-2.72 0-1.68 1.04-2.64 2.32-2.64h1.52c.08 0 .08 0 .08.08l-.08.56c0 .08-.08.08-.16.08-.48-.16-.64-.24-1.44-.24-.8 0-1.2.8-1.2 2.24 0 1.76.72 2.24 1.52 2.24.4 0 .8-.24 1.12-.56h.08l.24.24v.08c-.4.4-1.04.64-1.68.64zM79.2 10.24h-3.28c-.08 0-.08 0-.08-.08V5.04c0-.08 0-.08.08-.08h3.2c.08 0 .16 0 .16.08v.4c0 .08-.08.08-.16.08 0 0-.96-.16-1.36-.16h-.72c-.08 0-.24.08-.24.24v1.6s0 .08.08.08l1.6-.08c.08 0 .08 0 .08.08v.4c0 .08-.08.08-.08.08l-1.6-.08s-.08 0-.08.08V9.6c0 .08.08.24.24.24h.72c.48 0 1.52-.16 1.52-.16.08 0 .16 0 .16.08v.48h-.24zM84.8 8.8v1.44c0 .16-.48.16-.48.08l-2.8-3.84c-.08-.08-.08 0-.08 0l.08 3.6c0 .08 0 .16-.08.16h-.64c-.08 0-.08-.08-.08-.16l.08-3.76V5.04c0-.08 0-.08.08-.08h.48c.08 0 .16 0 .16.08L84 8.48c.08.08.16.08.16 0l-.08-3.28c0-.08 0-.16.08-.16h.56c.08 0 .08.08.08.16v3.6zM90.24 5.44c0 .08-.08.08-.08.08s-.88-.08-1.36-.08c-.08 0-.16.08-.16.16V10.24c0 .08 0 .08-.08.08h-.8c-.08 0-.08 0-.08-.08V5.6c0-.08-.08-.16-.16-.16-.48 0-1.36.08-1.36.08-.08 0-.08 0-.08-.08v-.4c0-.08.08-.08.16-.08h3.92c.08 0 .16 0 .16.08l-.08.4zM94.88 10.24H91.6c-.08 0-.08 0-.08-.08V5.04c0-.08 0-.08.08-.08h3.2c.08 0 .16 0 .16.08v.4c0 .08-.08.08-.16.08 0 0-.96-.16-1.36-.16h-.72c-.08 0-.24.08-.24.24v1.6s0 .08.08.08l1.6-.08c.08 0 .08 0 .08.08v.4c0 .08-.08.08-.08.08l-1.6-.08s-.08 0-.08.08V9.6c0 .08.08.24.24.24h.72c.48 0 1.52-.16 1.52-.16.08 0 .16 0 .16.08v.48h-.24zM100.48 10.24h-.96c-.08 0-.08-.08-.16-.08l-1.12-2c-.16-.24-.32-.32-.48-.32h-.32c-.08 0-.16.08-.16.16v2.24c0 .08 0 .08-.08.08h-.8c-.08 0-.08 0-.08-.08V5.12c0-.08 0-.08.08-.08h2.32c.8 0 1.44.56 1.44 1.28s-.56 1.28-1.28 1.44c-.08 0-.08.08 0 .08.08.08.16.16.32.4l1.2 1.68.24.32h-.16zm-2.4-4.96h-.56c-.08 0-.24.08-.24.24v1.76c0 .08.08.16.16.16h.32c.8 0 1.28-.32 1.28-1.12 0-.64-.4-1.04-.96-1.04zM107.6 5.52s-1.04-.16-1.36-.16h-.64c-.08 0-.24.08-.24.24v1.6s0 .08.08.08l1.52-.08c.08 0 .08 0 .08.08v.4c0 .08-.08.08-.08.08l-1.52-.08s-.08 0-.08.08v2.4c0 .08 0 .08-.08.08h-.8c-.08 0-.08 0-.08-.08V5.04c0-.08 0-.08.08-.08h3.12c.08 0 .16 0 .16.08v.4c0 .08-.08.08-.16.08zM110.88 10.4c-1.76 0-2.32-1.36-2.32-2.8 0-1.44.56-2.8 2.32-2.8 1.76 0 2.32 1.36 2.32 2.8 0 1.36-.56 2.8-2.32 2.8zm0-5.2c-1.04 0-1.2 1.28-1.2 2.32 0 .96.08 2.56 1.28 2.56 1.04 0 1.2-1.28 1.2-2.32 0-1.04-.08-2.56-1.28-2.56zM118.88 10.24h-.96c-.08 0-.08-.08-.16-.08l-1.12-2c-.16-.24-.32-.32-.48-.32h-.32c-.08 0-.16.08-.16.16v2.24c0 .08 0 .08-.08.08h-.8c-.08 0-.08 0-.08-.08V5.12c0-.08 0-.08.08-.08h2.32c.8 0 1.44.56 1.44 1.28s-.56 1.28-1.28 1.44c-.08 0-.08.08 0 .08.08.08.16.16.32.4l1.2 1.68.24.32h-.16zm-2.4-4.96h-.56c-.08 0-.24.08-.24.24v1.76c0 .08.08.16.16.16h.32c.8 0 1.28-.32 1.28-1.12 0-.64-.4-1.04-.96-1.04zM124.48 10.32c-.8 0-1.36-.16-1.84-.4-.08 0-.08-.08-.08-.16l.16-.56c0-.08.08-.08.16 0 .4.4.96.72 1.6.72.48 0 1.04-.4 1.04-.88 0-1.36-2.96-.8-2.96-2.8 0-.88.64-1.44 1.6-1.44.8 0 1.44.16 1.84.16.08 0 .08.08.08.08l-.16.56c0 .08-.08.08-.16.08-.4-.24-.8-.48-1.6-.48-.4 0-.8.24-.8.72 0 1.44 2.96.72 2.96 2.96.08 1.04-.8 1.44-1.84 1.44zM131.52 5.44c0 .08-.08.08-.08.08s-.88-.08-1.36-.08c-.08 0-.16.08-.16.16V10.24c0 .08 0 .08-.08.08h-.8c-.08 0-.08 0-.08-.08V5.6c0-.08-.08-.16-.16-.16-.48 0-1.36.08-1.36.08-.08 0-.08 0-.08-.08v-.4c0-.08.08-.08.16-.08h3.92c.08 0 .16 0 .16.08l-.08.4zM136.96 10.24H136c-.08 0-.08-.08-.16-.08l-1.12-2c-.16-.24-.32-.32-.48-.32h-.32c-.08 0-.16.08-.16.16v2.24c0 .08 0 .08-.08.08h-.8c-.08 0-.08 0-.08-.08V5.12c0-.08 0-.08.08-.08h2.32c.8 0 1.44.56 1.44 1.28s-.56 1.28-1.28 1.44c-.08 0-.08.08 0 .08.08.08.16.16.32.4l1.2 1.68.24.32h-.16zm-2.4-4.96H134c-.08 0-.24.08-.24.24v1.76c0 .08.08.16.16.16h.32c.8 0 1.28-.32 1.28-1.12 0-.64-.4-1.04-.96-1.04zM142.8 10.24h-.96c-.08 0-.16 0-.16-.08 0 0-.16-.4-.24-.64l-.32-.72c0-.08-.08-.08-.08-.08h-1.68c-.08 0-.08 0-.08.08l-.4 1.36c0 .08-.08.08-.16.08h-.64c-.08 0-.08-.08-.08-.16l2-5.12c0-.08.64-.08.64 0l1.84 4.56c.08.24.32.56.32.56.08.16.08.16 0 .16zm-2.56-3.92c0-.08-.08-.08-.08 0l-.72 2c0 .08 0 .08.08.08h1.36c.08 0 .08-.08.08-.08l-.72-2zM147.2 5.44c0 .08-.08.08-.08.08s-.88-.08-1.36-.08c-.08 0-.16.08-.16.16V10.24c0 .08 0 .08-.08.08h-.8c-.08 0-.08 0-.08-.08V5.6c0-.08-.08-.16-.16-.16-.48 0-1.36.08-1.36.08-.08 0-.08 0-.08-.08v-.4c0-.08.08-.08.16-.08h3.92c.08 0 .16 0 .16.08l-.08.4zM151.92 10.24h-3.28c-.08 0-.08 0-.08-.08V5.04c0-.08 0-.08.08-.08h3.2c.08 0 .16 0 .16.08v.4c0 .08-.08.08-.16.08 0 0-.96-.16-1.36-.16h-.72c-.08 0-.24.08-.24.24v1.6s0 .08.08.08l1.6-.08c.08 0 .08 0 .08.08v.4c0 .08-.08.08-.08.08l-1.6-.08s-.08 0-.08.08V9.6c0 .08.08.24.24.24h.72c.48 0 1.52-.16 1.52-.16.08 0 .16 0 .16.08v.48h-.24zM157.2 10.24c-.08 0-.32-.24-.32-.24h-.16c-.32.16-.8.32-1.36.32-1.28 0-2.32-.72-2.32-2.72 0-1.68 1.04-2.64 2.32-2.64h1.52c.08 0 .08 0 .08.08l-.08.56c0 .08-.08.08-.16.08-.48-.16-.64-.24-1.44-.24-.8 0-1.2.8-1.2 2.24 0 1.76.72 2.32 1.52 2.32.32 0 .8-.24.8-.56 0-.08-.08-1.44-.08-1.44v-.24c0-.08.08-.16.08-.16h.8s.08 0 .08.08v2.56h-.08zM159.76 10.24h-.8c-.08 0-.08 0-.08-.08V5.04c0-.08 0-.08.08-.08h.8c.08 0 .08 0 .08.08v5.12c0 .08 0 .08-.08.08zM163.68 10.32c-1.28 0-2.32-.72-2.32-2.72 0-1.68 1.04-2.64 2.32-2.64h1.52c.08 0 .08 0 .08.08l-.08.56c0 .08-.08.08-.16.08-.48-.16-.64-.24-1.44-.24-.8 0-1.2.8-1.2 2.24 0 1.76.72 2.24 1.52 2.24.4 0 .8-.24 1.12-.56h.08l.24.24v.08c-.4.4-1.04.64-1.68.64zM172.24 8.16h-.64v2c0 .08-.08.08-.08.08h-2c-.96 0-1.44-.64-1.44-1.2 0-.56.4-1.04 1.04-1.2-.4-.16-.64-.56-.64-.96 0-.72.56-1.12 1.36-1.12h.8c.08 0 .16 0 .16.08v.32c0 .08-.08.08-.08.08s-.32-.16-.48-.16c-.4 0-.72.24-.72.8 0 .48.32.88.8.88h.64V7.2c0-.08.08-.08.08-.08l.64.08c.08 0 .08 0 .08.08v.48h.64c.08 0 .08 0 .08.08v.24c-.16 0-.16.08-.24.08zm-1.44-.08h-.8c-.56 0-.8.4-.8.88s.32.96.72.96c.4 0 .64 0 .88-.08V8.08zM71.6 20.56h-.8c-.08 0-.08 0-.08-.08v-5.12c0-.08 0-.08.08-.08h.8c.08 0 .08 0 .08.08v5.12c0 .08 0 .08-.08.08zM77.44 19.12v1.44c0 .16-.48.16-.48.08l-2.8-3.84c-.08-.08-.08 0-.08 0l.08 3.6c0 .08 0 .16-.08.16h-.64c-.08 0-.08-.08-.08-.16l.08-3.76v-1.28c0-.08 0-.08.08-.08H74c.08 0 .16 0 .16.08l2.48 3.44c.08.08.16.08.16 0l-.08-3.28c0-.08 0-.16.08-.16h.56c.08 0 .08.08.08.16v3.6zM82.88 15.76c0 .08-.08.08-.08.08s-.88-.08-1.36-.08c-.08 0-.16.08-.16.16V20.56c0 .08 0 .08-.08.08h-.8c-.08 0-.08 0-.08-.08V15.92c0-.08-.08-.16-.16-.16-.48 0-1.36.08-1.36.08-.08 0-.08 0-.08-.08v-.4c0-.08.08-.08.16-.08h3.92c.08 0 .16 0 .16.08l-.08.4zM87.6 20.56h-3.28c-.08 0-.08 0-.08-.08v-5.12c0-.08 0-.08.08-.08h3.2c.08 0 .16 0 .16.08v.4c0 .08-.08.08-.16.08 0 0-.96-.16-1.36-.16h-.72c-.08 0-.24.08-.24.24v1.6s0 .08.08.08l1.6-.08c.08 0 .08 0 .08.08v.4c0 .08-.08.08-.08.08l-1.6-.08s-.08 0-.08.08v1.84c0 .08.08.24.24.24h.72c.48 0 1.52-.16 1.52-.16.08 0 .16 0 .16.08v.48h-.24zM93.2 20.56h-.96c-.08 0-.08-.08-.16-.08l-1.12-2c-.16-.24-.32-.32-.48-.32h-.32c-.08 0-.16.08-.16.16v2.24c0 .08 0 .08-.08.08h-.8c-.08 0-.08 0-.08-.08v-5.12c0-.08 0-.08.08-.08h2.32c.8 0 1.44.56 1.44 1.28s-.56 1.28-1.28 1.44c-.08 0-.08.08 0 .08.08.08.16.16.32.4l1.2 1.68.24.32c-.08-.08-.16 0-.16 0zm-2.4-4.96h-.56c-.08 0-.24.08-.24.24v1.76c0 .08.08.16.16.16h.32c.8 0 1.28-.32 1.28-1.12-.08-.64-.4-1.04-.96-1.04zM98.64 19.12v1.44c0 .16-.48.16-.48.08l-2.8-3.84c-.08-.08-.08 0-.08 0l.08 3.6c0 .08 0 .16-.08.16h-.64c-.08 0-.08-.08-.08-.16l.08-3.76v-1.28c0-.08 0-.08.08-.08h.48c.08 0 .16 0 .16.08l2.48 3.44c.08.08.16.08.16 0l-.08-3.28c0-.08 0-.16.08-.16h.56c.08 0 .08.08.08.16v3.6zM104.56 20.56h-.96c-.08 0-.16 0-.16-.08 0 0-.16-.4-.24-.64l-.32-.72c0-.08-.08-.08-.08-.08h-1.68c-.08 0-.08 0-.08.08l-.4 1.36c0 .08-.08.08-.16.08h-.64c-.08 0-.08-.08-.08-.16l2-5.12c0-.08.64-.08.64 0l1.84 4.56c.08.24.32.56.32.56.16.16.08.16 0 .16zm-2.48-3.92c0-.08-.08-.08-.08 0l-.72 2c0 .08 0 .08.08.08h1.36c.08 0 .08-.08.08-.08l-.72-2zM109.04 15.76c0 .08-.08.08-.08.08s-.88-.08-1.36-.08c-.08 0-.16.08-.16.16V20.56c0 .08 0 .08-.08.08h-.8c-.08 0-.08 0-.08-.08V15.92c0-.08-.08-.16-.16-.16-.48 0-1.36.08-1.36.08-.08 0-.08 0-.08-.08v-.4c0-.08.08-.08.16-.08h3.92c.08 0 .16 0 .16.08l-.08.4zM111.2 20.56h-.8c-.08 0-.08 0-.08-.08v-5.12c0-.08 0-.08.08-.08h.8c.08 0 .08 0 .08.08v5.12c0 .08 0 .08-.08.08zM115.04 20.72c-1.76 0-2.32-1.36-2.32-2.8 0-1.44.56-2.8 2.32-2.8 1.76 0 2.32 1.36 2.32 2.8 0 1.36-.56 2.8-2.32 2.8zm0-5.2c-1.04 0-1.2 1.28-1.2 2.32 0 .96.08 2.56 1.28 2.56 1.04 0 1.2-1.28 1.2-2.32 0-1.04-.08-2.56-1.28-2.56zM122.96 19.12v1.44c0 .16-.48.16-.48.08l-2.8-3.84c-.08-.08-.08 0-.08 0l.08 3.6c0 .08 0 .16-.08.16h-.64c-.08 0-.08-.08-.08-.16l.08-3.76v-1.28c0-.08 0-.08.08-.08h.48c.08 0 .16 0 .16.08l2.48 3.44c.08.08.16.08.16 0l-.08-3.28c0-.08 0-.16.08-.16h.56c.08 0 .08.08.08.16v3.6zM128.96 20.56H128c-.08 0-.16 0-.16-.08 0 0-.16-.4-.24-.64l-.32-.72c0-.08-.08-.08-.08-.08h-1.68c-.08 0-.08 0-.08.08l-.4 1.36c0 .08-.08.08-.16.08h-.64c-.08 0-.08-.08-.08-.16l2-5.12c0-.08.64-.08.64 0l1.84 4.56c.08.24.32.56.32.56.08.16.08.16 0 .16zm-2.56-3.92c0-.08-.08-.08-.08 0l-.72 2c0 .08 0 .08.08.08h1.36c.08 0 .08-.08.08-.08l-.72-2zM133.36 20.56h-3.04c-.08 0-.08 0-.08-.08v-5.12c0-.08 0-.08.08-.08h.8c.08 0 .08 0 .08.08V19.92c0 .08.08.24.24.24h.64c.48 0 1.36-.16 1.36-.16.08 0 .16 0 .16.08v.48h-.24zM139.04 20.64c-.8 0-1.36-.16-1.84-.4-.08 0-.08-.08-.08-.16l.16-.56c0-.08.08-.08.16 0 .4.4.96.72 1.6.72.48 0 1.04-.4 1.04-.88 0-1.36-2.96-.8-2.96-2.8 0-.88.64-1.44 1.6-1.44.8 0 1.44.16 1.84.16.08 0 .08.08.08.08l-.16.56c0 .08-.08.08-.16.08-.4-.24-.8-.48-1.6-.48-.4 0-.8.24-.8.72 0 1.44 2.96.72 2.96 2.96.08 1.04-.72 1.44-1.84 1.44zM146.08 15.76c0 .08-.08.08-.08.08s-.88-.08-1.36-.08c-.08 0-.16.08-.16.16V20.56c0 .08 0 .08-.08.08h-.8c-.08 0-.08 0-.08-.08V15.92c0-.08-.08-.16-.16-.16-.48 0-1.36.08-1.36.08-.08 0-.08 0-.08-.08v-.4c0-.08.08-.08.16-.08H146c.08 0 .16 0 .16.08l-.08.4zM151.44 16l-.08 2.96c0 1.12-.64 1.76-1.84 1.76-1.36 0-2.08-.56-2.08-1.76v-3.6c0-.08 0-.08.08-.08h.8c.08 0 .08 0 .08.08v3.52c0 .8.56 1.28 1.12 1.28s1.12-.32 1.12-1.2v-3.6c0-.08 0-.16.08-.16h.72c.08 0 .08.08.08.16-.08 0-.08.4-.08.64zM154.8 20.56c-.96 0-1.04-.08-1.28-.08s-.24.08-.4.08c-.08 0-.08 0-.08-.08v-5.12c0-.08 0-.08.08-.08h1.92c1.12 0 2.16.88 2.16 2.56 0 1.44-.88 2.72-2.4 2.72zm0-4.96h-.56c-.08 0-.16.08-.16.16v3.92c0 .32.24.48.64.48 1.28 0 1.44-1.52 1.44-2.48 0-1.52-.72-2.08-1.36-2.08zM159.52 20.56h-.8c-.08 0-.08 0-.08-.08v-5.12c0-.08 0-.08.08-.08h.8c.08 0 .08 0 .08.08v5.12c.08.08 0 .08-.08.08zM164.72 20.56h-3.28c-.08 0-.08 0-.08-.08v-5.12c0-.08 0-.08.08-.08h3.2c.08 0 .16 0 .16.08v.4c0 .08-.08.08-.16.08 0 0-.96-.16-1.36-.16h-.72c-.08 0-.24.08-.24.24v1.6s0 .08.08.08l1.6-.08c.08 0 .08 0 .08.08v.4c0 .08-.08.08-.08.08l-1.6-.08s-.08 0-.08.08v1.84c0 .08.08.24.24.24h.72c.48 0 1.52-.16 1.52-.16.08 0 .16 0 .16.08v.48h-.24zM167.92 20.64c-.8 0-1.36-.16-1.84-.4-.08 0-.08-.08-.08-.16l.16-.56c0-.08.08-.08.16 0 .4.4.96.72 1.6.72.48 0 1.04-.4 1.04-.88 0-1.36-2.96-.8-2.96-2.8 0-.88.64-1.44 1.6-1.44.8 0 1.44.16 1.84.16.08 0 .08.08.08.08l-.16.56c0 .08-.08.08-.16.08-.4-.24-.8-.48-1.6-.48-.4 0-.8.24-.8.72 0 1.44 2.96.72 2.96 2.96.08 1.04-.72 1.44-1.84 1.44z"/></g><defs><clipPath id="a"><path fill="#fff" d="M0 0h172.48v24H0z"/></clipPath></defs></svg>