<!-- Generated by IcoMoon.io -->
<svg version="1.1" xmlns="http://www.w3.org/2000/svg" width="226" height="32" viewBox="0 0 226 32">
<title>CSIS-logo-long</title>
<path d="M17.182 4.4c0.943 0.105 2.095 0.629 2.619 0.629 0.21 0 0.523 0.21 0.523 1.048 0 0.734 0.21 2.2 0.21 3.039 0 0.733-0.21 1.152-0.523 1.152-0.21 0-0.42-0.419-0.524-0.943-0.314-1.257-0.943-2.2-1.466-2.619-1.886-1.466-3.667-1.781-5.553-1.781-5.553 0-9.115 4.61-9.115 9.848 0 2.305 0.419 4.19 1.257 5.656 1.886 3.981 5.972 5.553 8.8 5.553 0.629 0 2.306-0.104 3.772-0.942 1.572-0.838 2.409-1.886 3.247-3.352 0.42-0.734 0.63-0.943 0.734-0.943 0.314 0 0.419 0.733 0.314 1.152-0.104 0.838-0.943 2.725-1.362 3.458-0.104 0.314-0.734 0.733-1.048 0.943-0.524 0.209-3.352 0.943-6.287 0.943-4.923 0-8.486-2.409-9.848-4.087-1.362-1.572-2.934-3.981-2.934-7.962s2.305-7.125 3.771-8.277c2.934-2.409 6.182-3.144 9.325-3.144 1.152 0.105 2.724 0.314 4.086 0.629zM36.145 4.505c0.21 0.104 0.42 0.629 0.42 0.629 0.104 0.628 0.314 2.618 0.314 2.828 0 0.629 0 0.943-0.21 0.943-0.314 0-0.734-0.21-0.838-0.734-0.42-1.256-1.363-2.304-1.677-2.513-0.628-0.524-1.466-0.839-2.409-0.839-2.305 0-3.981 1.781-3.981 4.086 0 2.409 1.782 3.562 4.819 5.553 2.62 1.781 4.82 3.562 4.82 6.705 0 1.781-0.943 3.667-2.828 4.924-1.153 0.734-3.144 1.257-4.715 1.257-1.152 0-3.457-0.419-4.504-0.943-0.314-0.21-0.838-0.943-0.838-1.152-0.21-1.153-0.524-2.725-0.524-3.248 0-0.105 0.314-0.629 0.523-0.629 0.314 0 0.838 0.943 1.257 1.991 0.943 1.885 3.144 2.724 4.505 2.724 2.409 0 4.19-1.676 4.19-4.191 0-1.466-0.733-3.038-4.296-5.343-2.933-1.886-5.029-3.877-5.029-6.81 0-1.675 0.734-3.143 1.886-4.19 1.048-0.943 2.724-1.676 5.133-1.676 1.572 0 3.458 0.523 3.981 0.629zM43.584 7.858c-0.104-1.572-0.104-2.096-1.991-2.409-0.734-0.105-0.943-0.42-0.943-0.629 0-0.314 0.419-0.42 0.838-0.42 0.943 0 2.619 0.105 3.772 0.105 1.675 0 2.515-0.105 3.667-0.105 0.524 0 0.838 0.105 0.838 0.42s-0.313 0.523-0.942 0.628c-1.991 0.42-1.991 1.257-2.096 2.2-0.104 1.048-0.104 3.352-0.104 10.163 0 1.886 0 4.086 0.104 5.133 0.105 1.886 0.314 2.515 2.515 2.934 0.629 0.105 0.943 0.314 0.943 0.629s-0.524 0.419-0.943 0.419c-1.782 0-4.191-0.209-5.134-0.209-1.048 0-1.362 0.104-2.619 0.104-0.629 0-0.942-0.209-0.942-0.523 0-0.21 0.314-0.42 1.048-0.629 1.781-0.42 1.886-0.943 1.991-2.515 0.104-1.257 0.209-4.819 0.209-7.752-0.104-2.096-0.104-6.391-0.209-7.544zM64.852 4.505c0.21 0.104 0.419 0.629 0.419 0.629 0.105 0.628 0.314 2.618 0.314 2.828 0 0.629 0 0.943-0.209 0.943-0.314 0-0.734-0.21-0.839-0.734-0.419-1.256-1.362-2.304-1.676-2.513-0.629-0.524-1.467-0.839-2.409-0.839-2.306 0-3.981 1.781-3.981 4.086 0 2.409 1.781 3.562 4.819 5.553 2.619 1.781 4.819 3.562 4.819 6.705 0 1.781-0.942 3.667-2.828 4.924-1.152 0.734-3.144 1.257-4.714 1.257-1.152 0-3.457-0.419-4.505-0.943-0.314-0.21-0.838-0.943-0.838-1.152-0.21-1.153-0.524-2.725-0.524-3.248 0-0.105 0.314-0.629 0.524-0.629 0.314 0 0.838 0.943 1.257 1.991 0.942 1.885 3.144 2.724 4.504 2.724 2.409 0 4.191-1.676 4.191-4.191 0-1.466-0.734-3.038-4.296-5.343-2.934-1.886-5.029-3.877-5.029-6.81 0-1.675 0.733-3.143 1.885-4.19 1.048-0.943 2.725-1.676 5.134-1.676 1.572 0 3.457 0.523 3.981 0.629zM78.577 30.907v-30.383c0-0.314 0.209-0.524 0.523-0.524s0.524 0.21 0.524 0.524v30.383c0 0.314-0.21 0.523-0.524 0.523-0.209 0-0.523-0.21-0.523-0.523zM95.445 13.515c-1.675 0-3.038-0.942-3.038-3.561 0-2.2 1.362-3.458 3.038-3.458h1.991c0.105 0 0.105 0 0.105 0.105l-0.105 0.733c0 0.104-0.104 0.104-0.209 0.104-0.629-0.209-0.839-0.314-1.886-0.314s-1.572 1.048-1.572 2.934c0 2.306 0.943 2.934 1.991 2.934 0.524 0 1.048-0.314 1.467-0.734h0.104l0.314 0.315v0.104c-0.524 0.524-1.362 0.838-2.2 0.838zM103.722 13.411h-4.296c-0.105 0-0.105 0-0.105-0.105v-6.705c0-0.104 0-0.104 0.105-0.104h4.19c0.105 0 0.21 0 0.21 0.104v0.524c0 0.104-0.104 0.104-0.21 0.104 0 0-1.257-0.209-1.781-0.209h-0.943c-0.104 0-0.314 0.105-0.314 0.314v2.095s0 0.105 0.104 0.105l2.096-0.105c0.104 0 0.104 0 0.104 0.105v0.523c0 0.105-0.104 0.105-0.104 0.105l-2.096-0.105s-0.104 0-0.104 0.105v2.409c0 0.104 0.104 0.314 0.314 0.314h0.943c0.629 0 1.991-0.21 1.991-0.21 0.104 0 0.21 0 0.21 0.105v0.629h-0.314zM111.055 11.525v1.886c0 0.209-0.628 0.209-0.628 0.104l-3.667-5.028c-0.105-0.105-0.105 0-0.105 0l0.105 4.714c0 0.104 0 0.21-0.105 0.21h-0.838c-0.105 0-0.105-0.105-0.105-0.21l0.105-4.924v-1.676c0-0.104 0-0.104 0.104-0.104h0.629c0.104 0 0.21 0 0.21 0.104l3.247 4.505c0.105 0.104 0.21 0.104 0.21 0l-0.104-4.296c0-0.105 0-0.21 0.104-0.21h0.733c0.104 0 0.104 0.104 0.104 0.21v4.714zM118.18 7.125c0 0.104-0.104 0.104-0.104 0.104s-1.152-0.104-1.781-0.104c-0.112 0.008-0.201 0.097-0.21 0.208l-0 0.001v6.078c0 0.104 0 0.104-0.104 0.104h-1.048c-0.104 0-0.104 0-0.104-0.104v-6.078c0-0.104-0.104-0.209-0.209-0.209-0.629 0-1.782 0.104-1.782 0.104-0.104 0-0.104 0-0.104-0.104v-0.524c0-0.104 0.104-0.104 0.209-0.104h5.134c0.104 0 0.21 0 0.21 0.104l-0.105 0.524zM124.257 13.411h-4.296c-0.104 0-0.104 0-0.104-0.105v-6.705c0-0.104 0-0.104 0.104-0.104h4.191c0.104 0 0.21 0 0.21 0.104v0.524c0 0.104-0.105 0.104-0.21 0.104 0 0-1.257-0.209-1.781-0.209h-0.943c-0.104 0-0.314 0.105-0.314 0.314v2.095s0 0.105 0.104 0.105l2.096-0.105c0.104 0 0.104 0 0.104 0.105v0.523c0 0.105-0.104 0.105-0.104 0.105l-2.096-0.105s-0.104 0-0.104 0.105v2.409c0 0.104 0.104 0.314 0.314 0.314h0.943c0.629 0 1.991-0.21 1.991-0.21 0.104 0 0.209 0 0.209 0.105v0.629h-0.313zM131.591 13.411h-1.257c-0.104 0-0.104-0.105-0.21-0.105l-1.466-2.619c-0.21-0.314-0.419-0.419-0.629-0.419h-0.419c-0.104 0-0.21 0.104-0.21 0.21v2.934c0 0.104 0 0.104-0.104 0.104h-1.048c-0.105 0-0.105 0-0.105-0.104v-6.706c0-0.104 0-0.104 0.105-0.104h3.038c1.048 0 1.886 0.734 1.886 1.676s-0.734 1.676-1.676 1.886c-0.105 0-0.105 0.104 0 0.104 0.104 0.104 0.209 0.21 0.419 0.524l1.572 2.2 0.314 0.42h-0.21zM128.447 6.915h-0.733c-0.104 0-0.314 0.104-0.314 0.314v2.305c0 0.104 0.105 0.209 0.21 0.209h0.419c1.048 0 1.676-0.419 1.676-1.466 0-0.838-0.523-1.362-1.257-1.362zM140.915 7.228s-1.362-0.209-1.781-0.209h-0.839c-0.104 0-0.314 0.105-0.314 0.314v2.095s0 0.105 0.105 0.105l1.991-0.105c0.104 0 0.104 0 0.104 0.105v0.523c0 0.105-0.104 0.105-0.104 0.105l-1.991-0.105s-0.105 0-0.105 0.105v3.144c0 0.104 0 0.104-0.104 0.104h-1.048c-0.104 0-0.104 0-0.104-0.104v-6.707c0-0.104 0-0.104 0.104-0.104h4.086c0.105 0 0.21 0 0.21 0.104v0.524c0 0.104-0.104 0.104-0.21 0.104zM145.21 13.62c-2.305 0-3.038-1.781-3.038-3.667s0.733-3.667 3.038-3.667c2.305 0 3.038 1.781 3.038 3.667 0 1.782-0.733 3.667-3.038 3.667zM145.21 6.81c-1.362 0-1.572 1.675-1.572 3.038 0 1.257 0.104 3.352 1.676 3.352 1.362 0 1.572-1.676 1.572-3.038s-0.104-3.352-1.676-3.352zM155.687 13.411h-1.256c-0.105 0-0.105-0.105-0.21-0.105l-1.466-2.619c-0.21-0.314-0.42-0.419-0.629-0.419h-0.42c-0.104 0-0.209 0.104-0.209 0.21v2.934c0 0.104 0 0.104-0.105 0.104h-1.048c-0.104 0-0.104 0-0.104-0.104v-6.706c0-0.104 0-0.104 0.104-0.104h3.038c1.048 0 1.886 0.734 1.886 1.676s-0.733 1.676-1.676 1.886c-0.104 0-0.104 0.104 0 0.104 0.104 0.104 0.21 0.21 0.419 0.524l1.572 2.2 0.314 0.42h-0.21zM152.544 6.915h-0.733c-0.105 0-0.314 0.104-0.314 0.314v2.305c0 0.104 0.104 0.209 0.209 0.209h0.42c1.048 0 1.676-0.419 1.676-1.466 0-0.838-0.524-1.362-1.257-1.362zM163.021 13.515c-1.048 0-1.781-0.21-2.409-0.524-0.104 0-0.104-0.104-0.104-0.209l0.209-0.734c0-0.104 0.105-0.104 0.21 0 0.523 0.524 1.257 0.943 2.095 0.943 0.629 0 1.362-0.523 1.362-1.152 0-1.782-3.876-1.048-3.876-3.667 0-1.153 0.838-1.886 2.095-1.886 1.048 0 1.886 0.21 2.409 0.21 0.105 0 0.105 0.104 0.105 0.104l-0.21 0.734c0 0.104-0.104 0.104-0.21 0.104-0.523-0.313-1.048-0.628-2.095-0.628-0.524 0-1.048 0.314-1.048 0.942 0 1.886 3.876 0.943 3.876 3.878 0.105 1.361-1.048 1.885-2.409 1.885zM172.241 7.125c0 0.104-0.105 0.104-0.105 0.104s-1.152-0.104-1.781-0.104c-0.104 0-0.21 0.104-0.21 0.209v6.078c0 0.104 0 0.104-0.104 0.104h-1.048c-0.104 0-0.104 0-0.104-0.104v-6.078c0-0.104-0.105-0.209-0.21-0.209-0.629 0-1.781 0.104-1.781 0.104-0.105 0-0.105 0-0.105-0.104v-0.524c0-0.104 0.105-0.104 0.21-0.104h5.133c0.105 0 0.21 0 0.21 0.104l-0.104 0.524zM179.366 13.411h-1.257c-0.105 0-0.105-0.105-0.21-0.105l-1.466-2.619c-0.21-0.314-0.42-0.419-0.629-0.419h-0.419c-0.113 0.008-0.202 0.097-0.21 0.209l-0 0.001v2.934c0 0.104 0 0.104-0.104 0.104h-1.048c-0.104 0-0.104 0-0.104-0.104v-6.706c0-0.104 0-0.104 0.104-0.104h3.039c1.048 0 1.885 0.734 1.885 1.676s-0.733 1.676-1.676 1.886c-0.104 0-0.104 0.104 0 0.104 0.105 0.104 0.21 0.21 0.42 0.524l1.571 2.2 0.314 0.42h-0.209zM176.222 6.915h-0.733c-0.104 0-0.314 0.104-0.314 0.314v2.305c0.008 0.112 0.098 0.201 0.209 0.209l0.001 0h0.419c1.048 0 1.676-0.419 1.676-1.466 0-0.838-0.524-1.362-1.257-1.362zM187.013 13.411h-1.256c-0.105 0-0.21 0-0.21-0.105 0 0-0.21-0.523-0.314-0.838l-0.419-0.943c0-0.104-0.105-0.104-0.105-0.104h-2.2c-0.104 0-0.104 0-0.104 0.104l-0.524 1.782c0 0.105-0.104 0.105-0.21 0.105h-0.838c-0.105 0-0.105-0.105-0.105-0.21l2.619-6.705c0-0.105 0.839-0.105 0.839 0l2.409 5.972c0.104 0.314 0.419 0.733 0.419 0.733 0.105 0.21 0.105 0.21 0 0.21zM183.66 8.277c0-0.104-0.104-0.104-0.104 0l-0.943 2.619c0 0.104 0 0.104 0.104 0.104h1.782c0.104 0 0.104-0.104 0.104-0.104l-0.943-2.619zM192.776 7.125c0 0.104-0.105 0.104-0.105 0.104s-1.152-0.104-1.781-0.104c-0.104 0-0.21 0.104-0.21 0.209v6.078c0 0.104 0 0.104-0.104 0.104h-1.048c-0.105 0-0.104 0-0.104-0.104v-6.078c0-0.104-0.105-0.209-0.21-0.209-0.629 0-1.782 0.104-1.782 0.104-0.104 0-0.104 0-0.104-0.104v-0.524c0-0.104 0.104-0.104 0.21-0.104h5.133c0.105 0 0.21 0 0.21 0.104l-0.104 0.524zM198.957 13.411h-4.296c-0.105 0-0.105 0-0.105-0.105v-6.705c0-0.104 0-0.104 0.105-0.104h4.19c0.105 0 0.21 0 0.21 0.104v0.524c0 0.104-0.104 0.104-0.21 0.104 0 0-1.256-0.209-1.781-0.209h-0.943c-0.104 0-0.314 0.105-0.314 0.314v2.095s0 0.105 0.104 0.105l2.096-0.105c0.104 0 0.104 0 0.104 0.105v0.523c0 0.105-0.104 0.105-0.104 0.105l-2.096-0.105s-0.104 0-0.104 0.105v2.409c0 0.104 0.104 0.314 0.314 0.314h0.943c0.629 0 1.991-0.21 1.991-0.21 0.104 0 0.21 0 0.21 0.105v0.629h-0.314zM205.871 13.411c-0.104 0-0.419-0.314-0.419-0.314h-0.21c-0.519 0.262-1.132 0.417-1.78 0.419h-0.001c-1.676 0-3.038-0.943-3.038-3.562 0-2.2 1.362-3.457 3.038-3.457h1.991c0.104 0 0.104 0 0.104 0.104l-0.104 0.734c0 0.104-0.104 0.104-0.21 0.104-0.629-0.209-0.838-0.313-1.885-0.313s-1.572 1.048-1.572 2.933c0 2.306 0.943 3.039 1.991 3.039 0.419 0 1.048-0.314 1.048-0.734 0-0.104-0.104-1.885-0.104-1.885v-0.314c0-0.105 0.104-0.21 0.104-0.21h1.048s0.105 0 0.105 0.104v3.353h-0.105zM209.224 13.411h-1.048c-0.104 0-0.104 0-0.104-0.105v-6.705c0-0.104 0-0.104 0.104-0.104h1.048c0.104 0 0.104 0 0.104 0.104v6.705c0 0.105 0 0.105-0.104 0.105zM214.358 13.515c-1.676 0-3.038-0.943-3.038-3.562 0-2.2 1.362-3.457 3.038-3.457h1.991c0.104 0 0.104 0 0.104 0.104l-0.104 0.734c0 0.104-0.104 0.104-0.21 0.104-0.628-0.209-0.838-0.313-1.885-0.313s-1.572 1.048-1.572 2.933c0 2.306 0.943 2.934 1.991 2.934 0.524 0 1.048-0.314 1.466-0.733h0.105l0.314 0.314v0.104c-0.524 0.524-1.362 0.838-2.2 0.838zM225.568 10.686h-0.838v2.619c0 0.105-0.104 0.105-0.104 0.105h-2.619c-1.257 0-1.886-0.838-1.886-1.572s0.524-1.362 1.362-1.572c-0.496-0.21-0.838-0.693-0.838-1.256 0-0.001 0-0.001 0-0.002v0c0-0.943 0.733-1.466 1.781-1.466h1.048c0.104 0 0.21 0 0.21 0.104v0.419c0 0.105-0.105 0.105-0.105 0.105s-0.419-0.21-0.629-0.21c-0.523 0-0.942 0.314-0.942 1.048 0 0.629 0.419 1.153 1.048 1.153h0.838v-0.734c0-0.104 0.105-0.104 0.105-0.104l0.838 0.104c0.105 0 0.105 0 0.105 0.105v0.629h0.838c0.104 0 0.104 0 0.104 0.104v0.314c-0.209 0-0.209 0.104-0.314 0.104zM223.683 10.582h-1.048c-0.734 0-1.048 0.524-1.048 1.152s0.42 1.257 0.943 1.257c0.524 0 0.839 0 1.153-0.104v-2.305zM93.769 26.925h-1.048c-0.104 0-0.104 0-0.104-0.104v-6.706c0-0.104 0-0.104 0.104-0.104h1.048c0.105 0 0.105 0 0.105 0.104v6.706c0 0.104 0 0.104-0.105 0.104zM101.416 25.040v1.885c0 0.21-0.629 0.21-0.629 0.105l-3.667-5.029c-0.104-0.105-0.104 0-0.104 0l0.104 4.714c0 0.104 0 0.21-0.104 0.21h-0.839c-0.104 0-0.104-0.105-0.104-0.21l0.104-4.924v-1.676c0-0.104 0-0.104 0.105-0.104h0.629c0.104 0 0.209 0 0.209 0.104l3.248 4.506c0.104 0.104 0.21 0.104 0.21 0l-0.105-4.296c0-0.105 0-0.21 0.105-0.21h0.733c0.104 0 0.104 0.104 0.104 0.21v4.714zM108.541 20.64c0 0.104-0.104 0.104-0.104 0.104s-1.153-0.104-1.782-0.104c-0.104 0-0.209 0.104-0.209 0.209v6.078c0 0.104 0 0.104-0.105 0.104h-1.048c-0.104 0-0.104 0-0.104-0.104v-6.079c-0.008-0.113-0.097-0.202-0.209-0.21l-0.001-0c-0.629 0-1.781 0.105-1.781 0.105-0.104 0-0.104 0-0.104-0.104v-0.524c0-0.104 0.104-0.104 0.209-0.104h5.134c0.104 0 0.209 0 0.209 0.104l-0.104 0.525zM114.723 26.925h-4.296c-0.105 0-0.105 0-0.105-0.104v-6.706c0-0.104 0-0.104 0.105-0.104h4.19c0.105 0 0.21 0 0.21 0.104v0.525c0 0.104-0.104 0.104-0.21 0.104 0 0-1.257-0.209-1.781-0.209h-0.943c-0.104 0-0.314 0.104-0.314 0.314v2.095s0 0.105 0.104 0.105l2.096-0.105c0.104 0 0.104 0 0.104 0.105v0.523c0 0.105-0.104 0.105-0.104 0.105l-2.096-0.105s-0.104 0-0.104 0.105v2.409c0 0.104 0.104 0.314 0.314 0.314h0.943c0.629 0 1.991-0.21 1.991-0.21 0.104 0 0.21 0 0.21 0.105v0.629h-0.314zM122.056 26.925h-1.257c-0.104 0-0.104-0.104-0.209-0.104l-1.467-2.62c-0.21-0.314-0.419-0.419-0.629-0.419h-0.419c-0.104 0-0.21 0.104-0.21 0.21v2.933c0 0.105 0 0.105-0.104 0.105h-1.048c-0.105 0-0.105 0-0.105-0.104v-6.706c0-0.104 0-0.104 0.105-0.104h3.038c1.048 0 1.886 0.734 1.886 1.676s-0.734 1.676-1.676 1.886c-0.105 0-0.105 0.104 0 0.104 0.104 0.104 0.209 0.21 0.419 0.524l1.572 2.2 0.314 0.419c-0.105-0.104-0.21 0-0.21 0zM118.913 20.43h-0.733c-0.104 0-0.314 0.104-0.314 0.314v2.305c0 0.104 0.105 0.209 0.21 0.209h0.419c1.048 0 1.676-0.419 1.676-1.466-0.104-0.838-0.523-1.362-1.257-1.362zM129.181 25.040v1.885c0 0.21-0.629 0.21-0.629 0.105l-3.667-5.029c-0.105-0.105-0.104 0-0.104 0l0.104 4.714c0 0.104 0 0.21-0.104 0.21h-0.839c-0.104 0-0.104-0.105-0.104-0.21l0.104-4.924v-1.676c0-0.104 0-0.104 0.104-0.104h0.629c0.104 0 0.21 0 0.21 0.104l3.248 4.506c0.104 0.104 0.209 0.104 0.209 0l-0.104-4.296c0-0.105 0-0.21 0.104-0.21h0.733c0.105 0 0.105 0.104 0.105 0.21v4.714zM136.934 26.925h-1.257c-0.104 0-0.209 0-0.209-0.104 0 0-0.21-0.524-0.314-0.839l-0.42-0.943c0-0.104-0.104-0.104-0.104-0.104h-2.2c-0.104 0-0.104 0-0.104 0.104l-0.524 1.782c0 0.104-0.104 0.104-0.209 0.104h-0.839c-0.104 0-0.104-0.104-0.104-0.209l2.619-6.705c0-0.105 0.838-0.105 0.838 0l2.41 5.972c0.104 0.314 0.419 0.733 0.419 0.733 0.21 0.21 0.104 0.21 0 0.21zM133.686 21.792c0-0.104-0.104-0.104-0.104 0l-0.943 2.619c0 0.104 0 0.104 0.104 0.104h1.782c0.104 0 0.104-0.104 0.104-0.104l-0.943-2.619zM142.8 20.64c0 0.104-0.104 0.104-0.104 0.104s-1.152-0.104-1.781-0.104c-0.112 0.008-0.201 0.097-0.21 0.208l-0 0.001v6.078c0 0.104 0 0.104-0.104 0.104h-1.048c-0.105 0-0.105 0-0.105-0.104v-6.079c0-0.104-0.104-0.21-0.209-0.21-0.629 0-1.782 0.105-1.782 0.105-0.104 0-0.104 0-0.104-0.104v-0.524c0-0.104 0.104-0.104 0.21-0.104h5.133c0.104 0 0.21 0 0.21 0.104l-0.105 0.525zM145.629 26.925h-1.048c-0.104 0-0.104 0-0.104-0.104v-6.706c0-0.104 0-0.104 0.104-0.104h1.048c0.105 0 0.105 0 0.105 0.104v6.706c0 0.104 0 0.104-0.105 0.104zM150.659 27.135c-2.305 0-3.038-1.781-3.038-3.667s0.733-3.667 3.038-3.667c2.305 0 3.038 1.781 3.038 3.667 0 1.781-0.733 3.667-3.038 3.667zM150.659 20.326c-1.362 0-1.572 1.675-1.572 3.038 0 1.256 0.104 3.352 1.676 3.352 1.362 0 1.572-1.676 1.572-3.038s-0.104-3.353-1.676-3.353zM161.031 25.040v1.885c0 0.21-0.629 0.21-0.629 0.105l-3.667-5.029c-0.104-0.105-0.104 0-0.104 0l0.104 4.714c0 0.104 0 0.21-0.104 0.21h-0.839c-0.104 0-0.104-0.105-0.104-0.21l0.104-4.924v-1.676c0-0.104 0-0.104 0.105-0.104h0.629c0.104 0 0.209 0 0.209 0.104l3.248 4.506c0.104 0.104 0.21 0.104 0.21 0l-0.105-4.296c0-0.105 0-0.21 0.105-0.21h0.733c0.104 0 0.104 0.104 0.104 0.21v4.714zM168.888 26.925h-1.257c-0.104 0-0.21 0-0.21-0.104 0 0-0.209-0.524-0.314-0.839l-0.419-0.943c0-0.104-0.104-0.104-0.104-0.104h-2.2c-0.104 0-0.104 0-0.104 0.104l-0.524 1.782c0 0.104-0.104 0.104-0.209 0.104h-0.839c-0.104 0-0.104-0.104-0.104-0.209l2.619-6.705c0-0.105 0.838-0.105 0.838 0l2.409 5.972c0.105 0.314 0.42 0.733 0.42 0.733 0.104 0.21 0.104 0.21 0 0.21zM165.536 21.792c0-0.104-0.105-0.104-0.105 0l-0.943 2.619c0 0.104 0 0.104 0.105 0.104h1.781c0.104 0 0.104-0.104 0.104-0.104l-0.942-2.619zM174.65 26.925h-3.981c-0.104 0-0.104 0-0.104-0.104v-6.706c0-0.104 0-0.104 0.104-0.104h1.048c0.104 0 0.104 0 0.104 0.104v5.973c0 0.104 0.105 0.314 0.314 0.314h0.839c0.629 0 1.781-0.21 1.781-0.21 0.105 0 0.21 0 0.21 0.105v0.629h-0.314zM182.088 27.031c-1.048 0-1.781-0.21-2.409-0.524-0.104 0-0.104-0.104-0.104-0.209l0.209-0.734c0-0.104 0.105-0.104 0.21 0 0.524 0.524 1.257 0.943 2.095 0.943 0.629 0 1.363-0.523 1.363-1.152 0-1.782-3.877-1.048-3.877-3.667 0-1.153 0.838-1.886 2.095-1.886 1.048 0 1.886 0.21 2.409 0.21 0.105 0 0.105 0.104 0.105 0.104l-0.21 0.734c0 0.104-0.104 0.104-0.209 0.104-0.524-0.314-1.048-0.629-2.096-0.629-0.523 0-1.048 0.315-1.048 0.943 0 1.886 3.877 0.943 3.877 3.878 0.104 1.361-0.943 1.885-2.41 1.885zM191.309 20.64c0 0.104-0.105 0.104-0.105 0.104s-1.152-0.104-1.781-0.104c-0.104 0-0.21 0.104-0.21 0.209v6.078c0 0.104 0 0.104-0.104 0.104h-1.048c-0.105 0-0.105 0-0.105-0.104v-6.079c0-0.104-0.104-0.21-0.209-0.21-0.629 0-1.782 0.105-1.782 0.105-0.104 0-0.104 0-0.104-0.104v-0.524c0-0.104 0.104-0.104 0.21-0.104h5.133c0.105 0 0.21 0 0.21 0.104l-0.104 0.525zM198.328 20.953l-0.105 3.878c0 1.466-0.838 2.304-2.409 2.304-1.781 0-2.724-0.734-2.724-2.305v-4.715c0-0.104 0-0.104 0.104-0.104h1.048c0.105 0 0.105 0 0.105 0.104v4.611c0 1.048 0.733 1.675 1.466 1.675s1.466-0.418 1.466-1.571v-4.714c0-0.104 0-0.21 0.105-0.21h0.943c0.104 0 0.104 0.105 0.104 0.21-0.104 0-0.104 0.523-0.104 0.838zM202.728 26.925c-1.257 0-1.362-0.104-1.676-0.104s-0.314 0.104-0.524 0.104c-0.104 0-0.104 0-0.104-0.104v-6.706c0-0.104 0-0.104 0.104-0.104h2.515c1.466 0 2.828 1.152 2.828 3.352 0 1.885-1.152 3.561-3.143 3.561zM202.728 20.43h-0.734c-0.104 0-0.209 0.104-0.209 0.21v5.133c0 0.419 0.314 0.629 0.838 0.629 1.676 0 1.886-1.991 1.886-3.247 0-1.992-0.943-2.725-1.781-2.725zM208.91 26.925h-1.048c-0.104 0-0.104 0-0.104-0.104v-6.706c0-0.104 0-0.104 0.104-0.104h1.048c0.104 0 0.104 0 0.104 0.104v6.706c0.105 0.104 0 0.104-0.104 0.104zM215.72 26.925h-4.296c-0.104 0-0.104 0-0.104-0.104v-6.706c0-0.104 0-0.104 0.104-0.104h4.191c0.104 0 0.21 0 0.21 0.104v0.525c0 0.104-0.105 0.104-0.21 0.104 0 0-1.257-0.209-1.782-0.209h-0.942c-0.105 0-0.314 0.104-0.314 0.314v2.095s0 0.105 0.104 0.105l2.095-0.105c0.105 0 0.105 0 0.105 0.105v0.523c0 0.105-0.105 0.105-0.105 0.105l-2.095-0.105s-0.104 0-0.104 0.105v2.409c0 0.104 0.104 0.314 0.314 0.314h0.942c0.629 0 1.992-0.21 1.992-0.21 0.104 0 0.209 0 0.209 0.105v0.629h-0.314zM219.911 27.031c-1.048 0-1.781-0.21-2.409-0.524-0.105 0-0.105-0.104-0.105-0.209l0.21-0.734c0-0.104 0.104-0.104 0.21 0 0.523 0.524 1.256 0.943 2.095 0.943 0.629 0 1.362-0.523 1.362-1.152 0-1.782-3.877-1.048-3.877-3.667 0-1.153 0.839-1.886 2.096-1.886 1.048 0 1.885 0.21 2.409 0.21 0.104 0 0.104 0.104 0.104 0.104l-0.209 0.734c0 0.104-0.105 0.104-0.21 0.104-0.524-0.314-1.048-0.629-2.095-0.629-0.524 0-1.048 0.315-1.048 0.943 0 1.886 3.876 0.943 3.876 3.878 0.105 1.361-0.943 1.885-2.409 1.885z"></path>
</svg>
