<svg aria-hidden="true" style="position: absolute; width: 0; height: 0; overflow: hidden;" version="1.1" xmlns="http://www.w3.org/2000/svg" xmlns:xlink="http://www.w3.org/1999/xlink">
  <defs>
    <symbol id="icon-chevron-right" viewBox="0 0 32 32">
      <title>chevron-right</title>
      <path d="M22.552 15.951l-11.219 11.219-1.886-1.886 9.333-9.333-9.333-9.333 1.886-1.886 11.219 11.219z"></path>
    </symbol>
    <symbol id="icon-plus" viewBox="0 0 16 16">
      <title>icon-plus</title>
      <path d="M6.125 0H4.875V4.375H0.5V5.625H4.875V10H6.125V5.625H10.1875V4.375H6.125V0Z"/>
    </symbol>
    <symbol id="icon-caret-down" viewBox="0 0 48 48">
      <title>icon-caret-down</title>
      <path d="M11 19L25 34L39 19L11 19Z"/>
    </symbol>
    <symbol id="icon Anticipating Climate Impacts" viewBox="0 0 32 32">
      <title>icon Anticipating Climate Impacts</title>
<path d="M0 16C0 7.163 7.163 0 16 0s16 7.163 16 16-7.163 16-16 16S0 24.837 0 16z" fill="#D33D3E"/>
<path d="M25.188 7.563H6.811a.61.61 0 0 0-.612.612v14.081c0 .337.275.613.612.613h8.704v.956c0 .336.275.612.612.612a.615.615 0 0 0 .613-.613v-.955h8.447a.615.615 0 0 0 .612-.613V8.176a.61.61 0 0 0-.613-.613zm-2.114 5.06a.615.615 0 0 1-.612.612.61.61 0 0 1-.613-.613v-.312l-4.38 4.416v.006h-.005c-.037.037-.086.061-.129.086-.024.012-.043.037-.067.049a.593.593 0 0 1-.203.037c-.012 0-.018.006-.03.006-.043 0-.08-.013-.123-.025-.037-.006-.073-.006-.11-.018-.03-.012-.055-.043-.086-.061-.037-.024-.08-.037-.11-.074H16.6v-.006l-1.746-1.757-4.986 5.034a.608.608 0 0 1-.435.184.61.61 0 0 1-.435-1.041l5.42-5.482a.629.629 0 0 1 .87 0l1.746 1.764 3.957-3.994h-.318a.615.615 0 0 1-.613-.612c0-.337.276-.613.613-.613h1.788c.013 0 .025.006.043.006.061.006.129.012.19.037.06.03.122.073.171.116.006.006.019.012.025.018a.618.618 0 0 1 .134.197c.03.079.043.159.043.238h.006l.001 1.801z" fill="#FAFAFA"/>
    </symbol>
    <symbol id="icon Comprehensive Planning Grid Modernization" viewBox="0 0 32 32">
      <title>icon Comprehensive Planning Grid Modernization</title>
        <path d="M0 16C0 7.163 7.163 0 16 0s16 7.163 16 16-7.163 16-16 16S0 24.837 0 16z" fill="#B098C8"/>
        <path d="M7.75 7.75v3.5h12v-3.5h-12zm13.5 0v3.5h3v-3.5h-3zm3 5h-3v8.5h3v-8.5zm0 10h-3v1.5h3v-1.5zm-4.5 1.5v-1.5H16.5c-.69 0-1.25-.56-1.25-1.25v-1.75h-7.5v4.5h12zm-12-6h2.5v-5.5h-2.5v5.5zm4-5.5v5.5h3.75c.69 0 1.25.56 1.25 1.25v1.75h3v-8.5h-8zM6.25 7.5c0-.69.56-1.25 1.25-1.25h17c.69 0 1.25.56 1.25 1.25v17c0 .69-.56 1.25-1.25 1.25h-17c-.69 0-1.25-.56-1.25-1.25v-17z" fill="#FAFAFA"/>
    </symbol>
    <symbol id="icon Data Transparency or Visualization" viewBox="0 0 32 32">
      <title>icon Data Transparency or Visualization</title>
        <path d="M0 16C0 7.163 7.163 0 16 0s16 7.163 16 16-7.163 16-16 16S0 24.837 0 16z" fill="#521A47"/>
        <g fill="#FAFAFA">
        <path d="M22.044 21.226A7.97 7.97 0 0 1 16 24c-4.417 0-8.013-3.596-8.013-8.013 0-4.251 3.33-7.726 7.512-7.987v7.987c0 .155.075.3.195.396l6.35 4.843z"/>
        <path d="M24.013 15.987c0 1.643-.501 3.175-1.353 4.447l-6.159-4.697V8c4.186.26 7.512 3.736 7.512 7.987z"/>
        </g>
    </symbol>
  </defs>
</svg>
