<svg aria-hidden="true" style="position: absolute; width: 0; height: 0; overflow: hidden;" version="1.1" xmlns="http://www.w3.org/2000/svg" xmlns:xlink="http://www.w3.org/1999/xlink">
  <defs>
    <symbol id="icon-chevron-right" viewBox="0 0 32 32">
      <title>chevron-right</title>
      <path d="M22.552 15.951l-11.219 11.219-1.886-1.886 9.333-9.333-9.333-9.333 1.886-1.886 11.219 11.219z"></path>
    </symbol>
    <symbol id="icon-plus" viewBox="0 0 16 16">
      <title>icon-plus</title>
      <path d="M6.125 0H4.875V4.375H0.5V5.625H4.875V10H6.125V5.625H10.1875V4.375H6.125V0Z"/>
    </symbol>
    <symbol id="icon-caret-down" viewBox="0 0 48 48">
      <title>icon-caret-down</title>
      <path d="M11 19L25 34L39 19L11 19Z"/>
    </symbol>
    <symbol id="icon-anticipating_climate_impacts" viewBox="0 0 24 24">
      <title>icon-anticipating_climate_impacts</title>
      <path d="M0 12C0 5.373 5.373 0 12 0s12 5.373 12 12-5.373 12-12 12S0 18.627 0 12z" fill="#D33D3E"/>
      <path d="M19.204 5.384H4.796a.479.479 0 0 0-.48.48v11.042c0 .264.216.48.48.48h6.824v.75c0 .263.216.48.48.48.265 0 .481-.216.481-.48v-.75h6.623c.264 0 .48-.216.48-.48V5.865a.479.479 0 0 0-.48-.48zm-1.657 3.967c0 .264-.216.48-.48.48a.479.479 0 0 1-.48-.48v-.244l-3.434 3.462v.005h-.005c-.029.029-.067.048-.101.067-.02.01-.034.03-.053.039a.464.464 0 0 1-.158.029c-.01 0-.015.004-.024.004-.034 0-.063-.01-.097-.019-.028-.004-.057-.004-.086-.014-.024-.01-.043-.034-.067-.048-.03-.02-.063-.029-.087-.058h-.005v-.004l-1.369-1.379-3.91 3.948a.476.476 0 0 1-.34.144.478.478 0 0 1-.341-.817l4.25-4.298a.493.493 0 0 1 .682 0l1.37 1.384 3.102-3.132h-.25a.482.482 0 0 1-.48-.48c0-.264.216-.48.48-.48h1.403c.01 0 .019.004.033.004.048.005.1.01.149.029a.668.668 0 0 1 .134.09c.005.006.015.01.02.015a.485.485 0 0 1 .105.154.513.513 0 0 1 .033.187h.005l.001 1.412z" fill="#fff"/>
    </symbol>
  </defs>
</svg>
